<svg width="32" height="32" viewBox="0 0 32 32" fill="none" xmlns="http://www.w3.org/2000/svg">
  <defs>
    <linearGradient id="tm_g" x1="6" y1="4" x2="26" y2="28" gradientUnits="userSpaceOnUse">
      <stop stop-color="#A855F7"/>
      <stop offset="1" stop-color="#EC4899"/>
    </linearGradient>
    <filter id="tm_s" x="-20%" y="-20%" width="140%" height="140%" color-interpolation-filters="sRGB">
      <feDropShadow dx="0" dy="2" stdDeviation="2" flood-color="#000000" flood-opacity="0.35"/>
    </filter>
  </defs>

  <rect width="32" height="32" rx="8" fill="#0A0A0A"/>

  <path
    d="M16 5.5c-4.8 0-8.7 3.9-8.7 8.7V22c0 2.5 2 4.5 4.5 4.5h8.4c2.5 0 4.5-2 4.5-4.5v-7.8c0-4.8-3.9-8.7-8.7-8.7Z"
    fill="url(#tm_g)"
    opacity="0.14"
  />

  <path
    d="M10.6 11.2h10.8c.4 0 .8.4.8.8v1.2c0 .4-.4.8-.8.8h-3.7v7.9c0 .5-.4.9-.9.9h-1.6c-.5 0-.9-.4-.9-.9V14h-3.7c-.4 0-.8-.4-.8-.8V12c0-.4.4-.8.8-.8Z"
    fill="url(#tm_g)"
    filter="url(#tm_s)"
  />

  <path
    d="M18.1 15.1c0-.5.4-.9.9-.9h1.5c.3 0 .6.1.8.4l1.3 1.7c.2.3.2.7 0 1l-1.3 1.7c-.2.2-.5.4-.8.4H19c-.5 0-.9-.4-.9-.9v-3.4Z"
    fill="url(#tm_g)"
    opacity="0.95"
  />
</svg>
